<svg xmlns="http://www.w3.org/2000/svg" version="1.1" xmlns:xlink="http://www.w3.org/1999/xlink" width="711.4" height="878.4"><svg id="SvgjsSvg1003" data-name="Camada 1" xmlns="http://www.w3.org/2000/svg" viewBox="0 0 711.4 878.4">
  <defs>
    <style>
      .cls-1 {
        fill: #02aedd;
      }
    </style>
  </defs>
  <g id="SvgjsG1002" data-name="ícone">
    <path class="cls-1" d="M93.95,338.98L358.95,73.98c11.64-11.64,31.55-3.4,31.55,13.07v239.76c0,12.18-4.84,23.87-13.45,32.48L112.05,624.27c-11.64,11.64-31.54,3.4-31.55-13.07v-239.75c-.01-12.18,4.83-23.87,13.44-32.48Z"></path>
    <path class="cls-1" d="M322.69,519.13l265-265c11.64-11.64,31.55-3.4,31.55,13.07v239.76c0,12.18-4.84,23.87-13.45,32.48l-264.99,264.99c-11.64,11.64-31.54,3.4-31.55-13.07v-239.75c-.01-12.18,4.83-23.87,13.44-32.48Z"></path>
  </g>
</svg><style>@media (prefers-color-scheme: light) { :root { filter: none; } }
@media (prefers-color-scheme: dark) { :root { filter: none; } }
</style></svg>