<?xml version="1.0" encoding="UTF-8"?>
<svg id="Camada_1" data-name="Camada 1" xmlns="http://www.w3.org/2000/svg" viewBox="0 0 2430.51 846.56">
  <defs>
    <style>
      .cls-1 {
        fill: #02aedd;
      }
    </style>
  </defs>
  <g id="Logotipo_Preto" data-name="Logotipo Preto">
    <g>
      <g>
        <path class="cls-1" d="M87.59,259.3L243.15,103.74c6.83-6.83,18.52-1.99,18.52,7.67v140.74c0,7.15-2.84,14.01-7.9,19.07l-155.55,155.55c-6.83,6.83-18.52,1.99-18.52-7.67v-140.73c0-7.15,2.83-14.01,7.89-19.07Z"/>
        <path class="cls-1" d="M221.87,365.04l155.56-155.56c6.83-6.83,18.52-1.99,18.52,7.67v140.74c0,7.15-2.84,14.01-7.9,19.07l-155.55,155.55c-6.83,6.83-18.52,1.99-18.52-7.67v-140.73c0-7.15,2.83-14.01,7.89-19.07Z"/>
      </g>
      <g>
        <path d="M846.88,100.23v215.67c0,47.93-10.59,84.28-31.76,109.07-21.18,24.79-52.09,37.19-92.75,37.19v71.91s0,.05,0,.07c0-.03,0-.05,0-.07v-71.91c-40.65,0-71.57-12.4-92.75-37.19-21.17-24.79-31.76-61.14-31.76-109.07V100.23h-75.22v239.91c0,55.16,17.97,101.42,53.91,138.74,35.86,37.25,84.35,55.91,145.44,55.99,0,0,0,0,0,0,.13,0,.25,0,.37,0,0,0,.01,0,.02,0s.01,0,.02,0c.13,0,.25,0,.37,0,0,0,0,0,0,0,61.1-.08,109.58-18.74,145.44-55.99,35.94-37.32,53.91-83.58,53.91-138.74V100.23h-75.22Z"/>
        <path d="M1178.99,100.27c65.19,0,117.7,20.2,157.54,60.59,39.83,40.4,59.76,92.64,59.76,156.71s-18.11,113.67-54.33,155.46c-36.23,41.79-84.7,62.68-145.43,62.68-65.19,0-113.39-17.26-144.59-51.82l-6.69-8.36v270.21h-83.58v-428.18c0-36.77,6.27-69.5,18.8-98.2,12.54-28.69,29.38-51.53,50.57-68.53,21.17-16.99,44.3-29.67,69.37-38.03,25.07-8.36,51.26-12.54,78.56-12.54ZM1178.99,175.49c-39.01,0-71.6,13.79-97.79,41.37-26.2,27.58-39.28,61.3-39.28,101.13s13.09,73.42,39.28,100.71c26.18,27.31,58.78,40.95,97.79,40.95s71.04-13.65,96.11-40.95c25.07-27.29,37.61-61.01,37.61-101.13s-12.54-73.82-37.61-101.13c-25.07-27.29-57.12-40.95-96.11-40.95Z"/>
        <path d="M1651.21,100.27c27.85,0,54.46,4.32,79.82,12.95,25.35,8.65,48.48,21.31,69.37,38.03,20.89,16.72,37.47,39.43,49.73,68.12,12.25,28.7,18.39,61.43,18.39,98.2v217.34h-83.58v-61.89c-1.12,1.67-3.21,4.05-6.27,7.1s-8.78,8.08-17.13,15.04c-8.36,6.97-17.55,13.24-27.58,18.8-10.03,5.58-22.71,10.59-38.03,15.04-15.33,4.45-31.07,6.69-47.22,6.69h-.84c-64.64,0-116.88-21.31-156.71-63.94-39.84-42.62-59.76-94.3-59.76-155.04,0-26.74,4.45-52.78,13.37-78.15,8.91-25.35,22-48.48,39.28-69.37,17.26-20.89,40.25-37.61,68.95-50.15,28.69-12.54,60.87-18.8,96.53-18.8h1.67ZM1651.21,175.49c-39.01,0-71.04,13.66-96.12,40.95-25.07,27.31-37.61,61.01-37.61,101.13s12.54,73.84,37.61,101.13c25.07,27.31,57.11,40.95,96.12,40.95s71.59-13.65,97.79-40.95c26.18-27.29,39.28-60.87,39.28-100.71s-13.1-73.55-39.28-101.13c-26.2-27.58-58.79-41.37-97.79-41.37Z"/>
        <path d="M2123.38,100.27c26.74.56,52.37,5.16,76.89,13.79,24.51,8.65,47.64,21.18,69.37,37.61,21.73,16.44,38.99,39.01,51.82,67.7,12.81,28.7,19.22,61.43,19.22,98.2v205.6c0,11.7-.56,23.26-1.67,34.68-1.12,11.41-3.76,24.66-7.94,39.7-4.18,15.04-9.75,29.25-16.72,42.63-6.97,13.37-16.59,26.74-28.84,40.12-12.26,13.37-26.47,24.66-42.62,33.85-16.17,9.19-36.5,16.85-61.01,22.98-24.53,6.12-51.54,9.19-81.07,9.19-20.06,0-39.28-2.51-57.67-7.52-18.39-5.02-33.57-10.87-45.55-17.55-11.99-6.69-22.44-13.52-31.34-20.48-8.92-6.97-15.33-12.95-19.22-17.97l-5.85-6.69,56.83-56.83c1.11,1.11,2.64,2.78,4.6,5.02,1.95,2.22,6.54,6.27,13.79,12.12,7.23,5.85,14.9,11,22.98,15.46,8.07,4.45,18.8,8.49,32.18,12.12,13.37,3.62,27.29,5.43,41.79,5.43,2.22,0,4.45-.29,6.69-.84,91.37-3.34,137.07-47.64,137.07-132.89v-62.68c-1.12,1.67-2.93,3.9-5.43,6.69-2.51,2.79-8.08,7.81-16.72,15.04-8.65,7.25-17.69,13.66-27.16,19.22-9.48,5.58-21.6,10.59-36.36,15.04-14.77,4.45-29.67,6.69-44.71,6.69h-3.34c-67.42-1.12-120.5-22.28-159.22-63.52-38.73-41.23-58.09-92.77-58.09-154.62s20.06-116.3,60.18-156.71c40.12-40.39,92.49-60.59,157.13-60.59ZM2123.38,175.49c-39.01,0-71.04,13.66-96.12,40.95-25.07,27.31-37.61,61.01-37.61,101.13s12.54,73.84,37.61,101.13c25.07,27.31,57.11,40.95,96.12,40.95s71.59-13.65,97.79-40.95c26.18-27.29,39.28-60.87,39.28-100.71s-13.1-73.55-39.28-101.13c-26.2-27.58-58.79-41.37-97.79-41.37Z"/>
      </g>
    </g>
  </g>
</svg>